<?xml version="1.0" encoding="UTF-8"?>
<svg version="1.1" xmlns="http://www.w3.org/2000/svg" width="710" height="924">
<path d="M0 0 C3.42806076 4.59816409 5.49169415 9.26014682 7.50390625 14.5703125 C7.82394119 15.39679794 8.14397614 16.22328339 8.47370911 17.07481384 C9.51013325 19.75563354 10.53644159 22.44019788 11.5625 25.125 C12.2754918 26.97610472 12.989201 28.82693327 13.70361328 30.67749023 C14.77942111 33.4645569 15.8546683 36.25182497 16.92706299 39.04020691 C19.06251951 44.59010187 21.22530416 50.12791788 23.42578125 55.65234375 C23.68220901 56.29747925 23.93863678 56.94261475 24.20283508 57.6072998 C25.37174199 60.54708106 26.54486457 63.48505693 27.72485352 66.42041016 C29.46614075 70.80819261 31.08454117 75.0143687 32.0546875 79.640625 C32.58726159 83.04112357 32.58726159 83.04112357 34.78222656 84.015625 C37.15788299 84.82676725 39.56410829 85.39271398 42 86 C44.29953454 86.78995775 46.59083097 87.60415481 48.875 88.4375 C50.69451172 89.09105469 50.69451172 89.09105469 52.55078125 89.7578125 C53.68902344 90.16773437 54.82726562 90.57765625 56 91 C56.85980469 91.30679688 57.71960938 91.61359375 58.60546875 91.9296875 C64.87350641 94.18179642 71.09225406 96.55746057 77.3125 98.9375 C84.3822142 101.64226702 91.46877587 104.2662458 98.60546875 106.7890625 C102.45675746 108.16293994 106.29398021 109.57070367 110.125 111 C110.79837402 111.25120605 111.47174805 111.50241211 112.16552734 111.76123047 C116.30477704 113.32064056 120.37607204 114.99538055 124.4375 116.75 C128.65138906 118.55267189 132.6305746 119.75364454 137.16015625 120.4453125 C139.49727115 121.14992039 140.39524314 122.17776615 142 124 C144.99918932 131.03941957 147.06524671 138.44354572 149.3125 145.75 C149.86067383 147.51923828 149.86067383 147.51923828 150.41992188 149.32421875 C156.07264468 167.61990534 161.48023552 185.9870102 166.82543945 204.37451172 C169.89710817 214.93601626 173.04652115 225.4645884 176.35684204 235.95367432 C178.53914671 242.89707916 180.67022011 249.85666741 182.8125 256.8125 C183.07223602 257.65540588 183.33197205 258.49831177 183.59957886 259.36676025 C187.31110002 271.41850525 190.96587806 283.48435557 194.5012207 295.58911133 C196.02486301 300.79153393 197.614656 305.94003287 199.44628906 311.04321289 C200.31211766 314.1030084 200.20162763 316.84116716 200 320 C199.34 320 198.68 320 198 320 C197.76539063 321.21171875 197.53078125 322.4234375 197.2890625 323.671875 C195.86662624 330.05415466 193.60906537 336.11460619 191.375 342.25 C190.70730591 344.10238281 190.70730591 344.10238281 190.02612305 345.9921875 C187.05827743 354.2059955 183.98323592 362.37621623 180.83837891 370.52368164 C178.20240146 377.38057666 175.7681393 384.29845309 173.36694336 391.24047852 C171.68072777 396.10097665 169.91846427 400.90654412 167.95703125 405.6640625 C166.33348268 409.62684635 164.82233194 413.63293954 163.29296875 417.6328125 C162.42964399 419.8811084 161.55720562 422.12592553 160.67578125 424.3671875 C158.77191641 429.22690257 156.9281333 434.03996377 155.5 439.0625 C154.4489294 442.73534219 153.13222682 446.17687852 151.625 449.6875 C149.62793771 454.3879027 147.80004016 459.11482446 146.125 463.9375 C145.47917969 465.77634766 145.47917969 465.77634766 144.8203125 467.65234375 C143.34747733 473.66291394 145.40228219 476.99042006 148.3125 482.25 C165.57770525 515.04328155 157.5188412 559.60977525 147.30126953 593.30419922 C142.84251455 607.21797565 136.05604911 621.50049751 127 633 C126.34 633 125.68 633 125 633 C124.34 634.65 123.68 636.3 123 638 C122.34 638 121.68 638 121 638 C121 638.66 121 639.32 121 640 C119.42578125 641.5859375 119.42578125 641.5859375 117.3125 643.375 C116.58417969 643.99246094 115.85585938 644.60992188 115.10546875 645.24609375 C114.41066406 645.82488281 113.71585938 646.40367187 113 647 C112.05125 647.804375 111.1025 648.60875 110.125 649.4375 C108 651 108 651 106 651 C105.67 651.99 105.34 652.98 105 654 C99.62857143 658 99.62857143 658 97 658 C97 658.66 97 659.32 97 660 C94.875 661.55078125 94.875 661.55078125 92 663.3125 C90.98292969 663.93898438 89.96585938 664.56546875 88.91796875 665.2109375 C87.95503906 665.80132813 86.99210938 666.39171875 86 667 C85.35675781 667.42539062 84.71351563 667.85078125 84.05078125 668.2890625 C75.92961575 673.65450667 66.86334158 678.24385629 57.734375 681.63671875 C57.0544751 681.8901001 56.3745752 682.14348145 55.67407227 682.40454102 C53.79453109 683.08618364 51.90336211 683.73551265 50.01171875 684.3828125 C46.33262033 686.35835951 45.47128343 688.16510239 44 692 C43.67 692 43.34 692 43 692 C43 690.35 43 688.7 43 687 C42.20078125 687.26554688 41.4015625 687.53109375 40.578125 687.8046875 C22.97969232 693.46427735 3.51670324 696.59426691 -14 689 C-14.99 688.34 -15.98 687.68 -17 687 C-17 686.34 -17 685.68 -17 685 C-18.32 684.34 -19.64 683.68 -21 683 C-21 682.34 -21 681.68 -21 681 C-21.66 681 -22.32 681 -23 681 C-28.04424974 673.43362539 -27.84267848 665.75156712 -27 657 C-24.90097767 647.59375617 -18.20597306 637.27839334 -12 630 C-11.34 630 -10.68 630 -10 630 C-9.566875 629.071875 -9.566875 629.071875 -9.125 628.125 C-8 626 -8 626 -6 624 C-22.17 624.66 -38.34 625.32 -55 626 C-53.68 627.32 -52.36 628.64 -51 630 C-51 630.66 -51 631.32 -51 632 C-49.68 632.66 -48.36 633.32 -47 634 C-47 634.66 -47 635.32 -47 636 C-46.01 636.33 -45.02 636.66 -44 637 C-44 637.66 -44 638.32 -44 639 C-43.01 639.33 -42.02 639.66 -41 640 C-39.8125 642.5625 -39.8125 642.5625 -39 645 C-38.34 645 -37.68 645 -37 645 C-35.34375 647.4140625 -35.34375 647.4140625 -33.5 650.625 C-32.8915625 651.66914062 -32.283125 652.71328125 -31.65625 653.7890625 C-28.70651184 659.50765865 -27.61057734 664.46147019 -27.625 670.875 C-27.62588623 671.57955322 -27.62677246 672.28410645 -27.62768555 673.01000977 C-27.75838607 678.74690019 -28.68276556 682.35587179 -32 687 C-32.99 687.33 -33.98 687.66 -35 688 C-35.33 688.99 -35.66 689.98 -36 691 C-36.66 691 -37.32 691 -38 691 C-38.33 691.99 -38.66 692.98 -39 694 C-40.53125 695.09765625 -40.53125 695.09765625 -42.5 696.0625 C-43.1290625 696.38347656 -43.758125 696.70445312 -44.40625 697.03515625 C-52.41640524 700.01483749 -60.07954118 700.25794571 -68.5625 700.125 C-69.66658203 700.11597656 -70.77066406 700.10695313 -71.90820312 700.09765625 C-74.6057017 700.07430128 -77.30273077 700.04155054 -80 700 C-79.73445313 700.77601563 -79.46890625 701.55203125 -79.1953125 702.3515625 C-69.15643272 733.05441379 -72.85096531 767.2917658 -87.34960938 796.00927734 C-91.05874503 803.03239031 -95.16896152 809.68594505 -100 816 C-100.57492187 816.76570312 -101.14984375 817.53140625 -101.7421875 818.3203125 C-109.93998033 829.06852976 -109.93998033 829.06852976 -114 833 C-114.66 833 -115.32 833 -116 833 C-116.35578125 833.85658203 -116.35578125 833.85658203 -116.71875 834.73046875 C-121.13926702 842.56071384 -130.61592484 848.17444211 -138 853 C-138.96421875 853.64839844 -139.9284375 854.29679688 -140.921875 854.96484375 C-154.93614256 864.04622858 -169.68261181 868.81053769 -185.87426758 872.48730469 C-187.68057062 872.92295834 -189.46351226 873.45370646 -191.23828125 874.00390625 C-223.61777158 882.57791459 -263.3236401 882.29347363 -296 876 C-297.69897563 875.70562466 -299.39819943 875.4126783 -301.09765625 875.12109375 C-339.03233987 868.34548942 -377.46048402 851.65396135 -406.22851562 825.59545898 C-408.66712869 823.39916125 -411.20624001 821.33420178 -413.75 819.26171875 C-415 818 -415 818 -415 816 C-415.639375 815.731875 -416.27875 815.46375 -416.9375 815.1875 C-419 814 -419 814 -420 811 C-422.00016466 809.79117904 -422.00016466 809.79117904 -424 809 C-424 808.34 -424 807.68 -424 807 C-424.61875 806.773125 -425.2375 806.54625 -425.875 806.3125 C-428.6292098 804.61137042 -428.82150461 802.94623846 -430 800 C-430.93585938 799.53400391 -430.93585938 799.53400391 -431.890625 799.05859375 C-434.30099258 797.84894632 -435.20434597 796.74914584 -436.75 794.5625 C-437.26046875 793.84964844 -437.7709375 793.13679687 -438.296875 792.40234375 C-438.85890625 791.60957031 -439.4209375 790.81679688 -440 790 C-440.64453125 789.13503906 -441.2890625 788.27007813 -441.953125 787.37890625 C-478.73828136 737.88742679 -488.88124042 674.37432957 -480.50488281 614.30908203 C-479.10083182 605.10670911 -477.21249332 596.03988685 -475 587 C-474.67757324 585.67742187 -474.67757324 585.67742187 -474.34863281 584.328125 C-466.18963417 551.74091369 -451.03168845 521.17167447 -433 493 C-432.55011719 492.28811523 -432.10023438 491.57623047 -431.63671875 490.84277344 C-426.95147236 483.43934044 -426.95147236 483.43934044 -425 481 C-424.34 481 -423.68 481 -423 481 C-422.7628125 480.30519531 -422.525625 479.61039062 -422.28125 478.89453125 C-420.7689473 475.47801815 -418.74761633 472.64243329 -416.5 469.6875 C-416.09652344 469.13771484 -415.69304687 468.58792969 -415.27734375 468.02148438 C-414.23731309 466.63992549 -413.12366546 465.31443702 -412 464 C-411.34 464 -410.68 464 -410 464 C-409.731875 463.195625 -409.46375 462.39125 -409.1875 461.5625 C-408.795625 460.716875 -408.40375 459.87125 -408 459 C-407.01 458.67 -406.02 458.34 -405 458 C-403.79117904 455.99983534 -403.79117904 455.99983534 -403 454 C-402.34 454 -401.68 454 -401 454 C-400.731875 453.195625 -400.46375 452.39125 -400.1875 451.5625 C-399.795625 450.716875 -399.40375 449.87125 -399 449 C-398.01 448.67 -397.02 448.34 -396 448 C-394.79117904 445.99983534 -394.79117904 445.99983534 -394 444 C-393.34 444 -392.68 444 -392 444 C-391.34 442.68 -390.68 441.36 -390 440 C-389.34 440 -388.68 440 -388 440 C-387.67 439.01 -387.34 438.02 -387 437 C-386.34 437 -385.68 437 -385 437 C-384.34 435.68 -383.68 434.36 -383 433 C-382.34 433 -381.68 433 -381 433 C-380.67 432.01 -380.34 431.02 -380 430 C-378.44140625 428.39453125 -378.44140625 428.39453125 -376.5625 426.8125 C-375.94503906 426.28269531 -375.32757813 425.75289063 -374.69140625 425.20703125 C-373 424 -373 424 -371 424 C-370.64421875 423.12601562 -370.64421875 423.12601562 -370.28125 422.234375 C-368.7273194 419.52447163 -366.98070569 418.13469198 -364.5 416.25 C-363.7059375 415.63640625 -362.911875 415.0228125 -362.09375 414.390625 C-360 413 -360 413 -358 413 C-357.67 412.01 -357.34 411.02 -357 410 C-352.0208636 405.37554181 -345.82930787 401.84345941 -340.171875 398.12109375 C-337.08728549 396.05836948 -334.07891984 393.91072561 -331.0625 391.75 C-319.20597619 383.5285302 -306.4661178 376.49769638 -293.5 370.1875 C-292.81260742 369.84388428 -292.12521484 369.50026855 -291.41699219 369.14624023 C-288.53532552 367.79171246 -286.36216205 366.98806059 -283.15625 367.09375 C-279.39989881 368.6725063 -278.46520755 372.44098626 -277 376 C-276.63696777 376.84763916 -276.27393555 377.69527832 -275.89990234 378.56860352 C-272.54594104 386.49621103 -269.5497816 394.53108785 -266.625 402.625 C-263.19120737 412.0891526 -259.71935866 421.53054695 -255.93017578 430.85986328 C-254.77607665 433.74546975 -254 435.85819142 -254 439 C-253.34 438.67 -252.68 438.34 -252 438 C-252.47713097 430.58196384 -254.93791951 424.36101905 -257.6875 417.5 C-258.60844724 415.15379273 -259.529022 412.80743922 -260.44921875 410.4609375 C-260.89313965 409.3378418 -261.33706055 408.21474609 -261.79443359 407.05761719 C-266.53932248 395.02339514 -270.84948816 382.83512453 -275.17651367 370.64624023 C-277.79721402 363.28961992 -280.50071046 355.97308383 -283.3125 348.6875 C-292 326.13499192 -292 326.13499192 -292 321 C-292.66 321 -293.32 321 -294 321 C-294.51978367 314.29006531 -292.61864969 308.71630698 -290.5625 302.375 C-290.02278564 300.66570312 -290.02278564 300.66570312 -289.47216797 298.921875 C-288.70775534 296.5010702 -287.93943034 294.08149781 -287.16748047 291.66308594 C-285.29360005 285.7836 -283.45742397 279.89251655 -281.625 274 C-281.25318604 272.80681152 -280.88137207 271.61362305 -280.49829102 270.38427734 C-277.34800523 260.22851252 -274.34509602 250.03272624 -271.36529541 239.82592773 C-268.15564506 228.83782425 -264.8180213 217.89637186 -261.39453125 206.97265625 C-258.49298979 197.67754273 -255.72902044 188.3467602 -253 179 C-249.76656761 167.93328903 -246.47256748 156.88867247 -243.0625 145.875 C-242.69705078 144.69035156 -242.33160156 143.50570312 -241.95507812 142.28515625 C-236.60302206 125.09855378 -236.60302206 125.09855378 -233 122 C-230.65234375 121.19140625 -230.65234375 121.19140625 -227.9375 120.5625 C-223.39085181 119.41099902 -219.18465829 117.96557853 -214.859375 116.16796875 C-211.28579133 114.70826722 -207.67836152 113.35089328 -204.0625 112 C-203.36318359 111.73840088 -202.66386719 111.47680176 -201.94335938 111.20727539 C-198.24040293 109.8256076 -194.53138158 108.46332363 -190.8125 107.125 C-185.41036618 105.17468281 -180.05110428 103.11572154 -174.6875 101.0625 C-166.49505959 97.92859048 -158.27207441 94.91771019 -150 92 C-147.97811934 91.27374249 -145.95721864 90.54474859 -143.9375 89.8125 C-142.68259766 89.35810547 -142.68259766 89.35810547 -141.40234375 88.89453125 C-139.71242043 88.26527525 -138.03867259 87.59168657 -136.37890625 86.88671875 C-134 86 -134 86 -131 86 C-130.88978516 85.29617187 -130.77957031 84.59234375 -130.66601562 83.8671875 C-129.92593907 80.68116877 -128.7596131 78.07299576 -127.34375 75.125 C-125.07787157 70.32285193 -122.8809438 65.50261293 -120.78125 60.625 C-120.51199707 60.00077148 -120.24274414 59.37654297 -119.96533203 58.73339844 C-119.14224782 56.82282461 -118.32083291 54.91154204 -117.5 53 C-113.8961663 44.60745196 -110.22836276 36.25582764 -106.375 27.97363281 C-104.08614525 23.02365929 -101.90581886 18.02632493 -99.7265625 13.02734375 C-99.39914062 12.28355469 -99.07171875 11.53976563 -98.734375 10.7734375 C-98.30463379 9.78996338 -98.30463379 9.78996338 -97.86621094 8.78662109 C-97 7 -97 7 -95 4 C-94.34 4 -93.68 4 -93 4 C-93 3.34 -93 2.68 -93 2 C-70.60909002 -16.14120665 -23.07058497 -19.52126421 0 0 Z " fill="#813DEB" transform="translate(493,26)"/>
<path d="M0 0 C2.81532819 5.04140164 4.5188509 9.22621075 5 15 C5.66 15 6.32 15 7 15 C8.94053635 19.69495714 10.87935639 24.39061809 12.81665039 29.08691406 C13.47471783 30.68150552 14.13323828 32.2759101 14.79223633 33.87011719 C15.74422015 36.17332709 16.69452473 38.47722393 17.64453125 40.78125 C17.9352803 41.48366821 18.22602936 42.18608643 18.52558899 42.90979004 C24 56.20373363 24 56.20373363 24 60 C23.14994385 59.97905273 22.2998877 59.95810547 21.42407227 59.93652344 C-11.12815144 59.24040767 -37.51749081 64.61831544 -62.3828125 87.16015625 C-76.85435777 101.06755653 -86.66103316 119.91257225 -87.42041016 140.15698242 C-87.57317464 158.30758488 -80.81730777 172.80510986 -68.36328125 185.796875 C-51.90054345 201.14395619 -32.1767141 208.14682391 -9.9765625 207.44921875 C6.49306688 206.49317685 24.39746155 202.11688677 35.9609375 189.69140625 C44.97966986 177.78737063 48.49568694 164.83600583 47 150 C44.56298411 141.3976252 40.90282965 134.32785864 33 129.75 C32.154375 129.24984375 31.30875 128.7496875 30.4375 128.234375 C23.75200522 124.84877187 15.33917669 124.89722581 8.171875 126.71875 C2.86688912 128.73659739 -4.35399414 131.70798828 -7 137 C-4.72893254 136.35498084 -2.45814093 135.70901747 -0.1875 135.0625 C1.07707031 134.70285156 2.34164062 134.34320312 3.64453125 133.97265625 C5.77501982 133.35508739 7.89563892 132.70145369 10 132 C18.43969177 131.10079388 24.9819605 132.08093378 32 137 C36.05645832 140.64604018 38.62039364 144.73538528 39.25390625 150.18359375 C39.80343909 161.54651478 34.40921317 170.69721339 27 179 C11.10149563 193.18745457 -7.69671669 193.91993409 -28.0625 193.18652344 C-40.4656644 192.39895549 -51.48402442 186.14447502 -59.9375 177.125 C-68.6081499 166.3818533 -71.18688906 154.52353482 -70 141 C-67.17246245 123.19979716 -55.57529051 108.72626162 -41.35546875 98.2421875 C-16.22928014 80.53609679 14.73091586 74.5495652 44.90209961 79.45288086 C64.7957449 83.19883575 82.96346559 94.18639124 94.57128906 110.91113281 C106.07153508 128.24248949 109.01279507 149.41929898 104.92333984 169.75 C98.0771761 198.81351324 80.22096956 221.85659621 57 240 C56.13632812 240.69222656 55.27265625 241.38445312 54.3828125 242.09765625 C29.35984045 261.36608725 -3.65814435 265.70959005 -34.24609375 262.11865234 C-50.42245469 259.84205899 -65.27899268 254.02595743 -79.91162109 246.9753418 C-81.79618395 246.09518881 -83.72476826 245.31082978 -85.65625 244.5390625 C-89.44889444 242.7933827 -92.40045328 240.67915943 -95.625 238.0625 C-96.52569214 237.34006104 -96.52569214 237.34006104 -97.44458008 236.60302734 C-123.78213365 215.22252216 -141.40515603 189.99481914 -150 157 C-150.268125 156.02933594 -150.53625 155.05867187 -150.8125 154.05859375 C-154.88793697 136.42666852 -152.12236275 117.29368475 -146.2109375 100.51953125 C-145.24295125 97.70612606 -144.43179884 94.93820006 -143.6875 92.0625 C-134.31962386 60.4327609 -107.88797002 35.34924542 -79.77734375 19.97265625 C-55.72674848 7.21980428 -27.47863139 -1.7416034 0 0 Z " fill="#3FBE98" transform="translate(257,574)"/>
<path d="M0 0 C3.78938872 1.89585084 7.20779396 4.27912341 10.6875 6.6875 C12.75628745 8.07845668 14.8253017 9.46907609 16.89453125 10.859375 C17.92529785 11.55998047 18.95606445 12.26058594 20.01806641 12.98242188 C24.26736129 15.85749744 28.56736599 18.6509319 32.875 21.4375 C33.67881104 21.96013428 34.48262207 22.48276855 35.31079102 23.02124023 C42.92957011 27.97198768 50.59057198 32.85624205 58.24975586 37.74414062 C67.49500574 43.65448917 76.68122671 49.65277408 85.85009766 55.68066406 C86.88827637 56.36225586 87.92645508 57.04384766 88.99609375 57.74609375 C89.91575928 58.35122803 90.8354248 58.9563623 91.78295898 59.57983398 C93.92132604 61.00477544 93.92132604 61.00477544 96 62 C96.40400024 61.12516968 96.40400024 61.12516968 96.81616211 60.23266602 C98.00669045 57.9873821 99.31494298 56.22510867 100.94140625 54.27734375 C101.52108154 53.57875244 102.10075684 52.88016113 102.69799805 52.16040039 C103.31328369 51.42684326 103.92856934 50.69328613 104.5625 49.9375 C105.83100112 48.41428894 107.09923 46.89085112 108.3671875 45.3671875 C108.9869043 44.62436523 109.60662109 43.88154297 110.24511719 43.11621094 C111.78564876 41.25848589 113.30907349 39.38937713 114.8203125 37.5078125 C115.60148438 36.53585937 116.38265625 35.56390625 117.1875 34.5625 C117.86167969 33.71816406 118.53585937 32.87382812 119.23046875 32.00390625 C121.5955933 29.32552017 123.29687377 28.10181883 126.859375 27.5859375 C131.00160715 28.13205268 132.34245213 29.67392597 135.25 32.625 C147.78575782 44.71676978 164.4376791 51.32597728 181.81030273 51.31030273 C198.15354151 51.01338894 214.45086256 43.77690104 226.125 32.375 C226.91132813 31.51648438 227.69765625 30.65796875 228.5078125 29.7734375 C231 28 231 28 234.65625 28.10546875 C238.71549315 29.19141114 240.39612147 30.90656393 243 34 C243.66902344 34.72703125 244.33804687 35.4540625 245.02734375 36.203125 C249.6385729 41.21635875 253.9939724 46.3803329 258.203125 51.734375 C259.76056575 53.69810464 261.36170541 55.60399614 263 57.5 C265 60 265 60 265 62 C278.36699742 53.81139843 291.44852291 45.19121755 304.54611206 36.58198547 C313.11451146 30.95082402 321.70592655 25.35494171 330.29785156 19.75976562 C332.13075424 18.56609355 333.96342915 17.37207167 335.79589844 16.17773438 C338.50924618 14.40935723 341.2232677 12.64201907 343.9375 10.875 C345.13548218 10.09406982 345.13548218 10.09406982 346.35766602 9.29736328 C347.8531638 8.32454985 349.35047669 7.35451934 350.84985352 6.38769531 C352.30822916 5.44646593 353.76171724 4.49762834 355.21069336 3.54199219 C355.91202393 3.08727539 356.61335449 2.63255859 357.3359375 2.1640625 C357.95388184 1.75881348 358.57182617 1.35356445 359.20849609 0.93603516 C362.24482003 -0.65040065 364.68085593 -0.50100288 368 0 C372.6 2.2 372.6 2.2 374 5 C374.60774913 10.34819233 373.26871725 12.81262365 370 17 C367.81985635 18.58661184 365.7622711 19.92224414 363.4375 21.25 C356.23458643 25.55250371 349.23750929 30.12470107 342.27713013 34.80505371 C334.00413946 40.36783122 325.72081963 45.88541907 317.21704102 51.09155273 C311.12044107 54.85684216 305.18606936 58.86160292 299.23794556 62.8550415 C294.17001939 66.25381715 289.08730839 69.6303263 284 73 C283.15791992 73.5583252 282.31583984 74.11665039 281.44824219 74.69189453 C279.41620459 76.02544692 277.37043057 77.33190148 275.3125 78.625 C274.25675781 79.29789062 273.20101563 79.97078125 272.11328125 80.6640625 C267.64884577 82.57979266 263.52365599 82.96533289 258.85546875 81.1796875 C253.1654393 76.72893847 249.03079145 71.21632217 244.69921875 65.49609375 C241.80187512 61.68564789 238.6372374 58.16234528 235.36328125 54.671875 C234 53 234 53 234 51 C233.17822266 51.63615234 233.17822266 51.63615234 232.33984375 52.28515625 C215.33380281 64.86686134 192.87959002 73.26063782 171.6015625 70.5703125 C154.99410112 67.7020729 140.40819605 61.16329015 127 51 C126.77570313 51.53367187 126.55140625 52.06734375 126.3203125 52.6171875 C124.56110403 55.79209037 122.24737377 58.40174269 119.875 61.125 C116.36769919 65.18526916 112.99225937 69.2839891 109.75 73.5625 C105.60056381 78.74929523 102.28784395 81.46994173 95.53515625 82.55859375 C89.04674652 82.42177649 84.06679541 77.99943653 78.9375 74.4375 C77.78914704 73.66001526 76.63946634 72.88448832 75.48852539 72.11083984 C73.13285149 70.52510929 70.7831529 68.93107933 68.4375 67.33056641 C63.32245216 63.84993059 58.12841419 60.49095256 52.9375 57.125 C51.04796835 55.89354939 49.15864007 54.66178666 47.26953125 53.4296875 C38.46493401 47.69579503 29.64271928 41.98906629 20.80859375 36.30078125 C17.27758745 34.02609205 13.75411607 31.74005636 10.23388672 29.44873047 C8.67578374 28.43826237 7.11466662 27.43243334 5.55126953 26.43017578 C3.06931567 24.83831521 0.59661386 23.2328551 -1.875 21.625 C-2.64255615 21.13717041 -3.4101123 20.64934082 -4.20092773 20.14672852 C-8.165014 17.54793557 -11.05104044 15.49010298 -13 11 C-13.42255782 7.5491111 -13.41098606 5.72411829 -11.6875 2.6875 C-8.51401593 -0.48598407 -4.25089515 -0.89807644 0 0 Z " fill="#FDFCFE" transform="translate(272,352)"/>
<path d="M0 0 C12.07529399 6.40322929 18.25307503 17.75362271 22.15307617 30.3371582 C24.16738097 37.64371594 24.82378592 44.50061482 24.75 52.0625 C24.74242676 53.1563501 24.73485352 54.2502002 24.72705078 55.37719727 C24.46627166 68.16013319 21.42700441 79.7237151 12.65234375 89.46875 C7.69106497 94.07968791 2.11136059 96.68067974 -4.6875 97 C-13.64782885 96.54587027 -19.73501523 92.11278016 -25.6875 85.625 C-36.01054883 72.00995528 -39.0436731 58.04359041 -39.0625 41.25 C-39.08699219 40.10789063 -39.11148438 38.96578125 -39.13671875 37.7890625 C-39.17912399 25.3501922 -35.80872384 13.8080132 -26.88671875 4.80859375 C-19.12508753 -2.08878732 -10.0064097 -3.78814082 0 0 Z " fill="#3FBF98" transform="translate(575.6875,202.375)"/>
<path d="M0 0 C6.38485377 5.05876875 10.36681551 10.94439046 13.03125 18.609375 C13.56878906 20.07117188 13.56878906 20.07117188 14.1171875 21.5625 C15.67535419 27.17355373 15.35959024 33.0215253 15.34375 38.796875 C15.35986328 39.95251953 15.37597656 41.10816406 15.39257812 42.29882812 C15.40136503 57.94829959 11.07081762 74.0659267 0.03125 85.609375 C-5.899358 91.03981124 -11.87316069 94.08091186 -19.84375 95.109375 C-26.87364528 94.77790646 -33.03608515 90.99774482 -37.78125 85.984375 C-46.22768162 75.42633547 -48.3207266 63.4813962 -48.28125 50.359375 C-48.29736328 49.30363281 -48.31347656 48.24789062 -48.33007812 47.16015625 C-48.33670313 36.33490179 -46.08921557 26.7386556 -41.03125 17.171875 C-40.69673828 16.50478516 -40.36222656 15.83769531 -40.01757812 15.15039062 C-35.8584551 7.04851513 -30.40610368 1.32805184 -22.21875 -2.765625 C-14.21607985 -4.30460003 -7.01834757 -4.52632561 0 0 Z " fill="#3FBF98" transform="translate(335.96875,205.390625)"/>
<path d="M0 0 C1.19882812 0.15275391 1.19882812 0.15275391 2.421875 0.30859375 C3.02515625 0.39238281 3.6284375 0.47617188 4.25 0.5625 C4.25 0.8925 4.25 1.2225 4.25 1.5625 C3.38117188 1.66046875 2.51234375 1.7584375 1.6171875 1.859375 C-9.18850844 3.26145635 -14.48389977 6.60067514 -21.671875 14.73828125 C-24.14451836 18.09865935 -25.74007409 21.4928501 -27.375 25.3125 C-27.6740625 25.97765625 -27.973125 26.6428125 -28.28125 27.328125 C-34.76396361 42.24410321 -35.8519431 62.63338478 -30.015625 77.90234375 C-25.84642926 86.66537553 -22.06773976 92.70667679 -13.375 97.375 C-6.21802346 99.7195268 -0.95268309 98.85999297 5.80078125 95.87109375 C16.106779 90.36469942 21.89525518 80.52241874 25.25 69.5625 C27.86850804 76.56830959 23.37934985 86.22178043 20.4453125 92.75390625 C16.75947064 100.50669487 12.58529402 107.81388306 7.25 114.5625 C6.63511719 115.35269531 6.02023437 116.14289063 5.38671875 116.95703125 C-0.69088096 124.30130504 -9.07315995 130.75033636 -18.80078125 131.93359375 C-27.43112409 132.10930133 -32.04187143 130.86969305 -38.35546875 125.09375 C-49.70736318 113.18739286 -52.32731456 96.67184315 -52.1875 80.875 C-52.17920166 79.65256592 -52.17090332 78.43013184 -52.16235352 77.1706543 C-51.66986393 50.5954956 -41.72443933 27.57352217 -22.9375 8.74609375 C-16.73708654 3.01932299 -8.54725979 -1.13125497 0 0 Z " fill="#FBFBFD" transform="translate(321.75,200.4375)"/>
<path d="M0 0 C12.47505841 -0.80890148 19.65643956 1.07159105 29.125 9.1875 C46.26115893 25.52040148 56.64167116 49.0024546 57.30078125 72.7421875 C57.31519867 75.11975116 57.3189679 77.49740142 57.3125 79.875 C57.32861328 81.05191406 57.34472656 82.22882813 57.36132812 83.44140625 C57.36978838 98.82215841 53.75082866 113.97739618 42.828125 125.375 C36.84591533 130.6925197 31.19424962 131.73114589 23.23828125 131.4375 C12.45040279 129.98003029 4.12410894 122.20343955 -2.41796875 113.94921875 C-11.82926572 101.0849682 -20.0098949 85.17171668 -21 69 C-19.11626808 71.82559788 -17.79745062 74.54964587 -16.375 77.625 C-11.74319555 86.93368728 -5.89369692 93.94437539 3.9375 97.75 C11.49764506 98.66638122 17.33357927 97.84517405 24 94 C31.94486542 87.45626395 36.34228933 76.98565927 38 67 C38.30016747 62.9128568 38.32482495 58.84681467 38.3125 54.75 C38.32861328 53.69425781 38.34472656 52.63851562 38.36132812 51.55078125 C38.3678402 40.91005593 36.19929096 31.21641912 31.3125 21.75 C30.96437256 21.0703418 30.61624512 20.39068359 30.25756836 19.69042969 C26.0342728 11.77756739 20.85795833 6.03175225 12.38671875 2.67578125 C8.3119105 1.52203031 4.2188978 1.1761544 0 1 C0 0.67 0 0.34 0 0 Z " fill="#FAFBFD" transform="translate(561,200)"/>
<path d="M0 0 C3.31563398 1.62070169 6.10379907 3.33860731 8.46875 6.2109375 C8.59642029 8.1321106 8.59642029 8.1321106 8.24389648 10.32861328 C8.05694969 11.56597733 8.05694969 11.56597733 7.8662262 12.82833862 C7.63660439 14.16627975 7.63660439 14.16627975 7.40234375 15.53125 C7.25510361 16.46373566 7.10786346 17.39622131 6.9561615 18.35696411 C6.48171114 21.31229756 5.97976147 24.26172007 5.46875 27.2109375 C5.31158508 28.12564819 5.15442017 29.04035889 4.99249268 29.98278809 C3.88736032 36.35964794 2.71444917 42.72318388 1.53125 49.0859375 C0.99782449 51.9807138 0.46595711 54.87577327 -0.06570435 57.77087402 C-0.41185709 59.65579917 -0.75842695 61.54064776 -1.10543823 63.42541504 C-2.99030739 73.67411039 -4.78078292 83.93845965 -6.53125 94.2109375 C-9.50125 94.2109375 -12.47125 94.2109375 -15.53125 94.2109375 C-18.34528638 75.59867651 -20.69486154 56.95270194 -22.86791992 38.25634766 C-23.02284912 36.9280896 -23.02284912 36.9280896 -23.1809082 35.57299805 C-23.37470184 33.90845756 -23.56709738 32.24375344 -23.7578125 30.57885742 C-24.2396266 26.43205294 -24.81269065 22.32503452 -25.53125 18.2109375 C-26.05580427 14.40927101 -26.31298218 10.98839857 -25.53125 7.2109375 C-19.17892272 -1.05142896 -9.89995841 -3.08609815 0 0 Z " fill="#FBF9FE" transform="translate(456.53125,64.7890625)"/>
<path d="M0 0 C1.55170898 -0.0309375 1.55170898 -0.0309375 3.13476562 -0.0625 C17.22679961 -0.13309253 30.72132435 4.33950987 41 14.3125 C46.79099164 20.62772878 50.70221438 26.58890726 50.8125 35.3125 C50.84085937 36.33472656 50.86921875 37.35695313 50.8984375 38.41015625 C50.4375 41.25 50.4375 41.25 48.8515625 43.62109375 C45.61347246 45.80601858 43.2592077 45.54397752 39.4375 45.25 C38.72787109 43.67412109 38.72787109 43.67412109 38.00390625 42.06640625 C32.39091035 29.98717 26.72734105 21.47730149 14.015625 16.125 C3.86611917 12.68031923 -5.92903339 13.6573008 -15.5625 18.25 C-23.30602293 23.08204004 -27.99195134 28.655651 -32.125 36.74609375 C-33.5625 39.25 -33.5625 39.25 -36.5625 41.25 C-42.00694444 40.80555556 -42.00694444 40.80555556 -44.5625 38.25 C-45.26861401 31.54191687 -43.63125183 27.15226833 -40.5625 21.25 C-40.005625 20.074375 -39.44875 18.89875 -38.875 17.6875 C-33.25077787 8.32827321 -23.87227804 3.70721614 -13.72216797 0.70581055 C-9.2274667 -0.24282242 -4.57566594 0.02222546 0 0 Z " fill="#FAF8FE" transform="translate(443.5625,281.75)"/>
<path d="M0 0 C1.19882812 0.15275391 1.19882812 0.15275391 2.421875 0.30859375 C3.02515625 0.39238281 3.6284375 0.47617188 4.25 0.5625 C4.25 0.8925 4.25 1.2225 4.25 1.5625 C3.38117188 1.66046875 2.51234375 1.7584375 1.6171875 1.859375 C-7.28820195 3.00075994 -7.28820195 3.00075994 -14.75 7.5625 C-15.74 8.2225 -16.73 8.8825 -17.75 9.5625 C-17.75 7.9125 -17.75 6.2625 -17.75 4.5625 C-16.33521865 3.91254703 -14.91808513 3.26771278 -13.5 2.625 C-12.71109375 2.26535156 -11.9221875 1.90570313 -11.109375 1.53515625 C-7.11463979 -0.11167995 -4.30121937 -0.56927903 0 0 Z " fill="#CBD7EA" transform="translate(321.75,200.4375)"/>
<path d="M0 0 C8.59141782 -0.43995881 15.46853452 -0.46309065 23 4 C22.01 4.495 22.01 4.495 21 5 C20.67 5.66 20.34 6.32 20 7 C19.113125 6.38125 18.22625 5.7625 17.3125 5.125 C12.00993805 2.03549076 5.99766186 1.68544707 0 1 C0 0.67 0 0.34 0 0 Z " fill="#C8DAE7" transform="translate(561,200)"/>
<path d="M0 0 C1.67641098 4.09086452 0.2409319 7.71511018 -0.9375 11.75 C-1.13279297 12.44738281 -1.32808594 13.14476562 -1.52929688 13.86328125 C-2.0108246 15.57798973 -2.50425157 17.28934877 -3 19 C-3.66 18.01 -4.32 17.02 -5 16 C-5.99 16 -6.98 16 -8 16 C-7.59007812 15.34773438 -7.18015625 14.69546875 -6.7578125 14.0234375 C-3.94000791 9.45293149 -1.3796851 5.24280337 0 0 Z " fill="#D7DDF0" transform="translate(347,270)"/>
<path d="M0 0 C0.66 0.33 1.32 0.66 2 1 C-1.96 4.96 -5.92 8.92 -10 13 C-10 10 -10 10 -7.8125 7.625 C-6.884375 6.75875 -5.95625 5.8925 -5 5 C-4.071875 4.071875 -3.14375 3.14375 -2.1875 2.1875 C-1.1046875 1.1046875 -1.1046875 1.1046875 0 0 Z " fill="#965DEF" transform="translate(425,301)"/>
<path d="M0 0 C1 2 1 2 0.00390625 5.2578125 C-0.46889984 6.5497052 -0.94971969 7.83868638 -1.4375 9.125 C-1.68048828 9.78371094 -1.92347656 10.44242187 -2.17382812 11.12109375 C-2.77578321 12.74991338 -3.38702412 14.37529575 -4 16 C-4.66 15.67 -5.32 15.34 -6 15 C-4.36041242 9.76727367 -2.61047965 4.84803364 0 0 Z " fill="#C503FF" transform="translate(667,427)"/>
<path d="M0 0 C0.66 0.33 1.32 0.66 2 1 C0.515 2.485 0.515 2.485 -1 4 C-0.67 4.66 -0.34 5.32 0 6 C-1.65 6 -3.3 6 -5 6 C-3.63016497 2.83884224 -3.0109362 2.0072908 0 0 Z " fill="#7357DA" transform="translate(255,705)"/>
<path d="M0 0 C0.99 0.33 1.98 0.66 3 1 C2.360625 1.556875 1.72125 2.11375 1.0625 2.6875 C-1.19680987 5.22066561 -1.63149047 6.68341424 -2 10 C-2.33 10 -2.66 10 -3 10 C-3.36923077 4.58461538 -3.36923077 4.58461538 -1.5 1.625 C-1.005 1.08875 -0.51 0.5525 0 0 Z " fill="#E5D7FB" transform="translate(262,353)"/>
<path d="M0 0 C0.33 0 0.66 0 1 0 C1 2.97 1 5.94 1 9 C0.34 8.01 -0.32 7.02 -1 6 C-1.99 6 -2.98 6 -4 6 C-2.69593116 3.98079663 -1.36176581 1.98075027 0 0 Z " fill="#E1E9F2" transform="translate(343,280)"/>
<path d="M0 0 C0.66 0.33 1.32 0.66 2 1 C1.34 2.32 0.68 3.64 0 5 C-0.33 4.34 -0.66 3.68 -1 3 C-0.67 2.01 -0.34 1.02 0 0 Z " fill="#FF00FF" transform="translate(676,401)"/>
<path d="" fill="#FF00FF" transform="translate(0,0)"/>
</svg>
