<?xml version="1.0" encoding="UTF-8"?>
<svg version="1.1" xmlns="http://www.w3.org/2000/svg" width="838" height="958">
<path d="M0 0 C0.99080566 0.29632324 1.98161133 0.59264648 3.00244141 0.89794922 C18.8387135 5.6811381 33.9220033 12.23568569 49 19 C49.97565918 19.43747559 50.95131836 19.87495117 51.95654297 20.32568359 C75.53264735 30.9973244 98.77991513 44.00942572 119.265625 59.89453125 C123.09514122 62.84325874 127.05497469 65.60199502 131.015625 68.37109375 C131.67046875 68.90863281 132.3253125 69.44617188 133 70 C133 70.66 133 71.32 133 72 C133.804375 72.268125 134.60875 72.53625 135.4375 72.8125 C136.283125 73.204375 137.12875 73.59625 138 74 C138.33 74.99 138.66 75.98 139 77 C139.825 77.33 140.65 77.66 141.5 78 C142.325 78.33 143.15 78.66 144 79 C144.33 79.99 144.66 80.98 145 82 C147.00016466 83.20882096 147.00016466 83.20882096 149 84 C149 84.66 149 85.32 149 86 C149.70125 86.185625 150.4025 86.37125 151.125 86.5625 C154.56307388 88.28153694 156.22947171 90.35759634 158.5703125 93.34375 C160.08924941 95.2526135 160.08924941 95.2526135 163 97 C163 97.66 163 98.32 163 99 C163.99 99.33 164.98 99.66 166 100 C167.578125 101.56640625 167.578125 101.56640625 169.25 103.5625 C169.86359375 104.28695312 170.4771875 105.01140625 171.109375 105.7578125 C171.73328125 106.49773437 172.3571875 107.23765625 173 108 C174.16474609 109.31420466 175.33137422 110.62674406 176.5 111.9375 C179.55648852 115.43062974 182.42830842 119.0380813 185.25 122.72265625 C186.40162688 124.22131355 187.56802028 125.70875745 188.75 127.18359375 C192.54840617 131.94008004 195.91481037 136.83948906 199.12890625 142.0078125 C200.77880348 144.64627028 202.47566016 147.24796868 204.18823242 149.84594727 C211.92504268 161.65865365 218.79326903 173.91921293 224.5625 186.8125 C224.89709229 187.55918945 225.23168457 188.30587891 225.57641602 189.07519531 C227.15203626 192.69675782 228.43476093 196.0588125 229 200 C229.66 200 230.32 200 231 200 C249.91144883 249.53613826 260.28552654 301.53970786 267 354 C267.13277344 355.00337402 267.26554688 356.00674805 267.40234375 357.04052734 C268.90172083 368.64174691 269.17225819 380.19109082 269.1875 391.875 C269.18926743 392.92716202 269.18926743 392.92716202 269.19107056 394.00057983 C269.18753447 412.50709952 269.18753447 412.50709952 265.8125 416.75 C260.87493932 420.70004854 255.66816196 422.60159464 249.5625 424 C248.83877197 424.16733643 248.11504395 424.33467285 247.36938477 424.50708008 C232.16252439 427.8511555 216.53751205 429.34602634 201 430 C201.59200195 430.08975098 202.18400391 430.17950195 202.79394531 430.27197266 C221.47218569 433.16188152 239.31821542 436.79126921 256 446 C257.28221837 446.61267805 258.56480064 447.22459485 259.84765625 447.8359375 C264.13655906 449.96776557 267.87495407 452.61801368 271.6875 455.5 C272.64366211 456.20962891 272.64366211 456.20962891 273.61914062 456.93359375 C275.42221392 458.27706013 277.21220848 459.63629887 279 461 C280.46373047 462.09828125 280.46373047 462.09828125 281.95703125 463.21875 C282.63121094 463.8065625 283.30539062 464.394375 284 465 C284 465.66 284 466.32 284 467 C284.8353125 467.3403125 284.8353125 467.3403125 285.6875 467.6875 C288.66159588 469.37550036 290.72008865 471.46676517 293 474 C293 474.66 293 475.32 293 476 C293.66 476 294.32 476 295 476 C295 476.66 295 477.32 295 478 C295.66 478 296.32 478 297 478 C317.17509934 499.81571182 326.52325614 530.68641773 331.75 559.1875 C332.06638428 560.89643433 332.06638428 560.89643433 332.38916016 562.63989258 C334.9405435 577.22714955 335.20243997 591.80033434 335.1875 606.5625 C335.18789276 607.38995728 335.18828552 608.21741455 335.18869019 609.06994629 C335.1690689 643.66186221 335.1690689 643.66186221 332 650 C331.76071897 651.33013684 331.56214882 652.66775887 331.38671875 654.0078125 C325.838925 694.62990168 310.62331994 733.17819038 283 764 C282.34 764 281.68 764 281 764 C280.731875 764.804375 280.46375 765.60875 280.1875 766.4375 C279.5996875 767.7059375 279.5996875 767.7059375 279 769 C278.01 769.33 277.02 769.66 276 770 C275.29291641 771.31234714 274.6317201 772.64975856 274 774 C270.66461178 778.20620387 267.01297784 782.43290858 263 786 C262.34 786 261.68 786 261 786 C260.67 786.99 260.34 787.98 260 789 C258.0625 791.1875 258.0625 791.1875 256 793 C255.34 793 254.68 793 254 793 C253.67 793.99 253.34 794.98 253 796 C247.53488372 801 247.53488372 801 245 801 C244.67 801.99 244.34 802.98 244 804 C242.44140625 805.60546875 242.44140625 805.60546875 240.5625 807.1875 C239.63630859 807.98220703 239.63630859 807.98220703 238.69140625 808.79296875 C237 810 237 810 235 810 C235 810.66 235 811.32 235 812 C233.34151823 813.01351664 231.67334039 814.01120795 230 815 C228.66112273 816.32776625 227.32842239 817.66177375 226 819 C224.47996003 820.27621103 222.93800125 821.52678163 221.375 822.75 C220.59898437 823.36359375 219.82296875 823.9771875 219.0234375 824.609375 C217 826 217 826 215 826 C215 826.66 215 827.32 215 828 C213.31874988 829.19542478 211.57751917 830.30712843 209.8125 831.375 C206.95872663 833.10942183 204.24850859 834.79790556 201.65625 836.90600586 C199.05949515 838.95309835 196.44099452 840.65852672 193.60546875 842.35546875 C192.57558838 842.97349365 191.54570801 843.59151855 190.48461914 844.22827148 C189.39656982 844.87481689 188.30852051 845.5213623 187.1875 846.1875 C185.5022522 847.19115601 185.5022522 847.19115601 183.78295898 848.21508789 C180.52558738 850.14958352 177.26371736 852.07623444 174 854 C173.19401367 854.47759766 172.38802734 854.95519531 171.55761719 855.44726562 C162.64346179 860.70821277 153.54861663 865.1327913 144.04296875 869.2265625 C140.93336613 870.57052521 137.9282588 872.03060567 134.9375 873.625 C129.87103932 876.23766962 124.53796548 878.03175766 119.15014648 879.85791016 C115.93748773 880.94809951 112.83219954 882.0738002 109.72265625 883.44140625 C78.46004378 897.13901115 41.7496584 902.69799179 8 906 C7.00790527 906.09716309 6.01581055 906.19432617 4.99365234 906.29443359 C-6.77457217 907.28835339 -18.57262349 907.2426889 -30.375 907.25 C-31.50394684 907.25100708 -32.63289368 907.25201416 -33.79605103 907.25305176 C-52.37886947 907.24187185 -70.57150824 906.51236086 -89 904 C-90.04397949 903.86078125 -91.08795898 903.7215625 -92.16357422 903.578125 C-148.51758973 895.78649924 -203.0293563 875.79304038 -252 847 C-252.66032227 846.61553711 -253.32064453 846.23107422 -254.00097656 845.83496094 C-262.03830926 841.13492901 -262.03830926 841.13492901 -265 839 C-265 838.34 -265 837.68 -265 837 C-265.70769531 836.74605469 -266.41539062 836.49210938 -267.14453125 836.23046875 C-270.27339865 834.882188 -272.87029824 833.22699358 -275.6875 831.3125 C-276.73164063 830.60351562 -277.77578125 829.89453125 -278.8515625 829.1640625 C-280.41003906 828.09285156 -280.41003906 828.09285156 -282 827 C-282.95648438 826.34773437 -283.91296875 825.69546875 -284.8984375 825.0234375 C-291.59779055 820.40658129 -291.59779055 820.40658129 -293.4375 818.546875 C-296.3834895 815.63034539 -299.93013419 813.42076239 -303.30859375 811.03515625 C-305.78014804 809.1662451 -307.85212371 807.22347442 -310 805 C-311.2389175 803.88341259 -312.48903139 802.77912365 -313.75 801.6875 C-314.77867187 800.7903125 -314.77867187 800.7903125 -315.828125 799.875 C-317.3102458 798.59547125 -318.80021364 797.32498986 -320.296875 796.0625 C-321.02390625 795.44375 -321.7509375 794.825 -322.5 794.1875 C-323.1703125 793.62417969 -323.840625 793.06085937 -324.53125 792.48046875 C-326 791 -326 791 -326 789 C-327.32 788.34 -328.64 787.68 -330 787 C-330 786.34 -330 785.68 -330 785 C-330.99 784.67 -331.98 784.34 -333 784 C-333 783.34 -333 782.68 -333 782 C-334.32 781.34 -335.64 780.68 -337 780 C-337 779.34 -337 778.68 -337 778 C-338.32 777.34 -339.64 776.68 -341 776 C-341 775.34 -341 774.68 -341 774 C-341.99 773.67 -342.98 773.34 -344 773 C-344 772.34 -344 771.68 -344 771 C-344.99 770.67 -345.98 770.34 -347 770 C-348.578125 768.43359375 -348.578125 768.43359375 -350.25 766.4375 C-353.33883561 762.7822681 -356.50103337 759.2098489 -359.71484375 755.6640625 C-361 754 -361 754 -361 752 C-361.99 751.67 -362.98 751.34 -364 751 C-364.66666667 749.33333333 -365.33333333 747.66666667 -366 746 C-366.99 745.67 -367.98 745.34 -369 745 C-370.66046897 742.90598052 -372.18488028 740.82740297 -373.6875 738.625 C-374.5815229 737.34209351 -375.47606034 736.05954545 -376.37109375 734.77734375 C-376.81437012 734.13780762 -377.25764648 733.49827148 -377.71435547 732.83935547 C-379.51842905 730.25829008 -381.38315009 727.72339438 -383.25 725.1875 C-386.00566604 721.40532092 -388.67465787 717.58772057 -391.23364258 713.66992188 C-392.53475588 711.70323562 -393.85733925 709.75071241 -395.19165039 707.80639648 C-401.26332544 698.93068042 -406.5864103 689.83987022 -411.5625 680.3125 C-411.92784851 679.61889374 -412.29319702 678.92528748 -412.6696167 678.21066284 C-418.57311128 666.99852349 -424.0784932 655.68065778 -429 644 C-429.61392603 642.58304836 -430.22850248 641.16637834 -430.84375 639.75 C-438.43437882 622.05088529 -444.0316135 603.5854458 -449 585 C-449.25136719 584.06800781 -449.50273437 583.13601563 -449.76171875 582.17578125 C-471.09645466 501.92685073 -466.17914334 413.59568846 -437 336 C-436.67563965 335.12520996 -436.3512793 334.25041992 -436.01708984 333.34912109 C-426.70269257 308.40621673 -414.89744876 283.12523641 -400 261 C-399.19704417 259.78573276 -398.39502759 258.5708441 -397.59375 257.35546875 C-395.47525649 254.14919794 -393.33936954 250.95514914 -391.19140625 247.76855469 C-390.08202942 246.12176662 -388.97828697 244.47118675 -387.875 242.8203125 C-387.25625 241.91023438 -386.6375 241.00015625 -386 240.0625 C-385.46375 239.26972656 -384.9275 238.47695313 -384.375 237.66015625 C-383.92125 237.11230469 -383.4675 236.56445312 -383 236 C-382.34 236 -381.68 236 -381 236 C-380.79375 235.34 -380.5875 234.68 -380.375 234 C-378.50875748 229.92819814 -376.02438473 226.31203002 -373 223 C-372.34 223 -371.68 223 -371 223 C-370.731875 222.195625 -370.46375 221.39125 -370.1875 220.5625 C-369.795625 219.716875 -369.40375 218.87125 -369 218 C-368.01 217.67 -367.02 217.34 -366 217 C-365.32558869 215.3364521 -364.6599679 213.66933058 -364 212 C-362 209.6875 -362 209.6875 -360 208 C-359.34 208 -358.68 208 -358 208 C-357.7525 207.2575 -357.505 206.515 -357.25 205.75 C-355.89534961 202.76976913 -354.4898459 201.10080748 -352 199 C-351.34 199 -350.68 199 -350 199 C-349.34 197.68 -348.68 196.36 -348 195 C-347.34 195 -346.68 195 -346 195 C-345.67 194.01 -345.34 193.02 -345 192 C-344.34 192 -343.68 192 -343 192 C-342.67 191.01 -342.34 190.02 -342 189 C-340.0625 186.8125 -340.0625 186.8125 -338 185 C-337.34 185 -336.68 185 -336 185 C-335.67 184.01 -335.34 183.02 -335 182 C-329.53488372 177 -329.53488372 177 -327 177 C-326.67 176.01 -326.34 175.02 -326 174 C-324.29296875 172.28125 -324.29296875 172.28125 -322.1875 170.5 C-321.50042969 169.9121875 -320.81335938 169.324375 -320.10546875 168.71875 C-314.325 164 -314.325 164 -312 164 C-311.67 163.01 -311.34 162.02 -311 161 C-309.33333333 160.33333333 -307.66666667 159.66666667 -306 159 C-305.67 158.01 -305.34 157.02 -305 156 C-300.66666667 153 -300.66666667 153 -298 153 C-297.67 152.01 -297.34 151.02 -297 150 C-295.25 148.60546875 -295.25 148.60546875 -293 147.1875 C-292.278125 146.72730469 -291.55625 146.26710937 -290.8125 145.79296875 C-289.884375 145.20128906 -288.95625 144.60960937 -288 144 C-286.60161725 143.06566623 -285.20462178 142.12925466 -283.80859375 141.19140625 C-242.39320481 113.52839031 -195.24597359 90.47896518 -146 81 C-147.36242533 76.60130659 -149.07930484 72.60270118 -151.14868164 68.49145508 C-151.61488167 67.56102638 -151.61488167 67.56102638 -152.09049988 66.61180115 C-153.1100379 64.57917209 -154.13512943 62.54939706 -155.16015625 60.51953125 C-155.8727586 59.10060285 -156.58494608 57.68146602 -157.29673767 56.26213074 C-159.16543097 52.53800595 -161.03857382 48.81613913 -162.9130249 45.09490967 C-165.91755925 39.12907512 -168.91664495 33.16050702 -171.91317558 27.19064903 C-172.95990926 25.10740079 -174.0093631 23.02553945 -175.05909729 20.94380188 C-175.69972779 19.66936792 -176.34027107 18.39489011 -176.98071289 17.12036133 C-177.54093643 16.00816727 -178.10115997 14.89597321 -178.67835999 13.75007629 C-181.10300855 8.70485333 -182.07003988 4.39373595 -180.33984375 -1.09375 C-178.63508383 -4.56808961 -176.97106476 -6.51747401 -173.4765625 -8.25390625 C-170.02158918 -9.38632039 -166.54851272 -10.23097247 -163 -11 C-162.26797363 -11.16983398 -161.53594727 -11.33966797 -160.78173828 -11.51464844 C-107.36634417 -23.84042058 -51.76314445 -15.72128959 0 0 Z M95.9375 281.37890625 C90.03595702 289.23533535 86.61182625 298.09561426 88 308 C89.77600477 316.05724197 92.37398479 323.77923462 98 330 C98.66 330 99.32 330 100 330 C100.226875 330.5878125 100.45375 331.175625 100.6875 331.78125 C104.5518244 338.31379838 114.11663413 341.73526829 120.90625 344.46875 C123.16931713 345.24346784 123.16931713 345.24346784 126 344 C125.60167969 343.48953125 125.20335937 342.9790625 124.79296875 342.453125 C118.01232978 333.14830656 116.19464973 323.85433 117.36328125 312.45703125 C119.97352058 298.28487294 129.20285176 284.72449864 140.8125 276.3125 C148.89613151 270.95602405 156.34750185 267.37599442 166 266 C160.92288802 260.92288802 150.97174858 260.78096238 144.125 260.625 C125.83977614 261.13179667 108.17730897 267.26139931 95.9375 281.37890625 Z M-7.9375 390.1875 C-8.79988281 390.83203125 -9.66226563 391.4765625 -10.55078125 392.140625 C-11.35902344 392.75421875 -12.16726563 393.3678125 -13 394 C-14.20050848 394.82401765 -15.40725804 395.63917036 -16.625 396.4375 C-17.40875 396.953125 -18.1925 397.46875 -19 398 C-15.55496686 400.29668876 -13.2286091 400.63430028 -9.15625 401.296875 C-7.75941292 401.53182617 -6.36268852 401.76744803 -4.96606445 402.00366211 C-4.2363443 402.12498505 -3.50662415 402.24630798 -2.75479126 402.37130737 C43.53042681 410.14491867 43.53042681 410.14491867 58.25 426.5 C62.0305196 431.90074229 62.57214222 436.54139458 62 443 C61.48557826 445.42576461 60.8013416 447.64605905 60 450 C59.34 450 58.68 450 58 450 C57.71125 450.639375 57.4225 451.27875 57.125 451.9375 C56 454 56 454 54 455 C54 455.66 54 456.32 54 457 C52.68 457.33 51.36 457.66 50 458 C50 458.66 50 459.32 50 460 C49.34 460.2475 48.68 460.495 48 460.75 C44.86757397 462.05517751 41.88160064 463.54353274 38.8671875 465.09765625 C37 466 37 466 34 467 C34 467.66 34 468.32 34 469 C33.12601563 469.11988281 32.25203125 469.23976563 31.3515625 469.36328125 C28.09202432 469.98251753 25.43032313 470.91513498 22.375 472.1875 C-40.4696809 496.84358676 -114.50741921 500.70987395 -181.22753906 503.5070343 C-182.00194336 503.53951767 -182.77634766 503.57200104 -183.57421875 503.60546875 C-184.31865234 503.63654221 -185.06308594 503.66761566 -185.83007812 503.69963074 C-191.57209805 503.95168795 -197.28472054 504.38326601 -203 505 C-203 506.32 -203 507.64 -203 509 C-195.65717999 509.11593445 -188.41394123 508.7637475 -181.09399414 508.20556641 C-179.94596817 508.12099686 -178.7979422 508.03642731 -177.61512756 507.94929504 C-173.83820302 507.67019945 -170.06168898 507.38590662 -166.28515625 507.1015625 C-163.62888375 506.90424977 -160.97259121 506.70722856 -158.31626892 506.5105896 C-152.03387826 506.04488896 -145.75177263 505.57545295 -139.46976322 505.10464036 C-132.42453309 504.57679986 -125.3790038 504.05301089 -118.3334409 503.52963376 C-108.46318272 502.79637212 -98.59303352 502.06167074 -88.72313595 501.32356834 C-86.33410468 501.14502569 -83.94504985 500.96679817 -81.55597019 500.78890419 C-75.56068282 500.3423508 -69.56581982 499.89098616 -63.57150269 499.43157959 C-62.36105758 499.33970556 -61.15061247 499.24783154 -59.90348721 499.15317345 C-57.62541395 498.98024987 -55.34747995 498.80547663 -53.06972599 498.62839699 C-46.46302935 498.12964303 -39.87454559 497.80691648 -33.25 497.6875 C-32.51040259 497.66948019 -31.77080519 497.65146038 -31.00879574 497.63289452 C-25.37207293 497.64307129 -20.5054911 498.64357702 -16.29296875 502.60546875 C-15.92816406 503.12753906 -15.56335938 503.64960937 -15.1875 504.1875 C-14.465625 505.115625 -13.74375 506.04375 -13 507 C-12.34 507 -11.68 507 -11 507 C-10.7525 507.66 -10.505 508.32 -10.25 509 C-8.99198603 512.01923353 -7.54292514 514.86125696 -6 517.7421875 C-0.21563665 530.80219539 -2.95107171 544.2362447 -5.6875 557.6875 C-5.93113281 558.89809082 -6.17476562 560.10868164 -6.42578125 561.35595703 C-8.90592499 572.87829151 -12.6643484 583.604041 -18.8125 593.6875 C-19.46206665 594.76946655 -19.46206665 594.76946655 -20.12475586 595.87329102 C-25.5251155 604.70979201 -32.11490574 612.27105623 -39.1171875 619.87109375 C-41.13535665 622.05601736 -41.13535665 622.05601736 -43 625 C-42.02189418 626.12592245 -41.04241565 627.25065233 -40.0625 628.375 C-39.09763672 629.48875 -39.09763672 629.48875 -38.11328125 630.625 C-36.75004686 632.15706379 -35.35319131 633.66015746 -33.91796875 635.125 C-26.48156705 642.84277906 -21.2783497 651.74282755 -16 661 C-15.60280762 661.69512695 -15.20561523 662.39025391 -14.79638672 663.10644531 C-13.65756704 665.12356083 -12.54252602 667.15169357 -11.4375 669.1875 C-11.06713623 669.85869873 -10.69677246 670.52989746 -10.31518555 671.22143555 C-8.09163686 675.41210013 -6.43684184 679.55246474 -4.9921875 684.07421875 C-1.91338383 694.60749483 -1.91338383 694.60749483 5.25488281 702.30908203 C10.78729438 704.09885448 16.35358563 704.19145395 22.12597656 704.06298828 C24.8174617 704.00400058 27.46060436 704.08123193 30.1484375 704.21484375 C69.02681145 705.7467362 113.30555601 695.47251892 148.375 678.6875 C149.27955933 678.2558252 149.27955933 678.2558252 150.20239258 677.81542969 C152.13947267 676.88602885 154.07014214 675.94429762 156 675 C156.7110791 674.65469238 157.4221582 674.30938477 158.15478516 673.95361328 C160.33566922 672.89234292 162.51242467 671.82312002 164.6875 670.75 C165.35894043 670.42088623 166.03038086 670.09177246 166.72216797 669.75268555 C170.0745528 668.07905808 173.0362501 666.27834307 176 664 C177.48415546 663.23910146 178.98574459 662.51158125 180.5 661.8125 C188.8831946 657.70162976 196.52519799 652.75103076 203 646 C203.763125 645.278125 204.52625 644.55625 205.3125 643.8125 C207.22713951 642.16877727 207.22713951 642.16877727 207 640 C207.88945313 639.63648438 207.88945313 639.63648438 208.796875 639.265625 C213.12342804 636.78015836 215.36835556 632.12095234 218 628 C218.99966797 626.44539063 218.99966797 626.44539063 220.01953125 624.859375 C233.66290317 602.42476725 239.0158536 574.31238864 233.0390625 548.58984375 C229.90774557 537.7714969 225.44588771 528.28619896 219 519 C218.38511719 518.00226563 217.77023437 517.00453125 217.13671875 515.9765625 C209.75242504 505.68984988 196.2520384 499.22601641 184 497 C180.91048261 496.71522533 177.85135668 496.6657372 174.75 496.6875 C173.915896 496.69241455 173.08179199 496.6973291 172.22241211 496.70239258 C155.93638983 497.00967602 140.35492372 503.91314469 127 513 C124.81192115 515.39130881 124.81192115 515.39130881 123 518 C122.33226562 518.77730469 121.66453125 519.55460938 120.9765625 520.35546875 C118.63839596 523.48380619 116.99008579 526.77860653 115.375 530.3125 C114.92640625 531.25125977 114.92640625 531.25125977 114.46875 532.20898438 C109.6642415 542.57269188 107.77984452 554.80811762 111.1796875 565.94140625 C115.72394671 577.34533293 120.27826781 585.68410249 131.53515625 591.0546875 C139.68244219 594.17932014 149.83918082 594.12477463 158 591 C164.47004197 587.34301975 166.99165228 581.94690769 169 575 C170.14183685 570.42632015 170.14183685 570.42632015 169 566 C165.47699444 567.20906151 165.47699444 567.20906151 162.5625 569.4375 C158.6712075 573.3287925 154.18556276 574.40486018 148.88378906 574.5703125 C141.8710987 574.5453674 136.40817899 574.49885603 130.734375 569.84765625 C124.24861233 562.93827394 122.60101295 556.30963634 122.7265625 546.96875 C123.63954291 537.05639123 128.61998626 528.99655704 135.80859375 522.3203125 C146.47373506 513.76159203 158.2783638 509.64345145 171.8125 509.625 C173.21338867 509.58826172 173.21338867 509.58826172 174.64257812 509.55078125 C184.45611255 509.5099199 191.69948088 513.15803051 200 518 C200.66 518 201.32 518 202 518 C202 518.66 202 519.32 202 520 C202.845625 520.680625 203.69125 521.36125 204.5625 522.0625 C215.9498331 531.31136679 222.52104936 545.78881035 225 560 C225.39326103 564.84287401 225.4208646 569.64344844 225.375 574.5 C225.38660156 575.72847656 225.39820313 576.95695313 225.41015625 578.22265625 C225.37414255 589.54296306 223.11101615 599.52768199 218.4375 609.8125 C218.0967041 610.56877686 217.7559082 611.32505371 217.40478516 612.10424805 C214.92525033 617.41984122 212.09956615 622.41471167 208.875 627.3125 C208.47982178 627.91618408 208.08464355 628.51986816 207.67749023 629.1418457 C205.61217295 632.14134151 203.54048904 634.5059808 200.6953125 636.79296875 C199.80585937 637.52128906 198.91640625 638.24960937 198 639 C198 639.66 198 640.32 198 641 C196.95005859 641.37705078 196.95005859 641.37705078 195.87890625 641.76171875 C192.64626853 643.15214773 189.89007351 644.89899821 186.9375 646.8125 C164.06774751 661.17665093 138.44000317 663.46835949 112.4296875 658.2890625 C98.44230501 654.81611332 81.86942862 646.71537964 72 636 C70.41754725 634.24850835 70.41754725 634.24850835 69 633 C68.34 633 67.68 633 67 633 C66.72929688 632.4225 66.45859375 631.845 66.1796875 631.25 C64.99143773 628.98366931 63.66425691 627.04170864 62.125 625 C61.38636719 624.01 61.38636719 624.01 60.6328125 623 C59.03279305 620.94936565 59.03279305 620.94936565 57.05078125 619.17578125 C54.48938748 616.45826443 52.78867442 613.46655347 51.0625 610.1875 C50.71622559 609.53241455 50.36995117 608.8773291 50.01318359 608.20239258 C37.88107518 584.52302589 36.00885193 556.65653688 42 531 C42.2165625 530.00355469 42.433125 529.00710938 42.65625 527.98046875 C45.76007996 515.06631909 52.83038897 504.40568293 61.2421875 494.30859375 C63.20193327 492.21840083 63.20193327 492.21840083 63 490 C64.485 489.505 64.485 489.505 66 489 C68.40995366 486.36458982 68.40995366 486.36458982 69 483 C70.485 482.505 70.485 482.505 72 482 C73.19950525 480.56725762 74.39521195 479.13098507 75.5625 477.671875 C80.00813811 472.50140459 85.83121985 468.55248479 91.27734375 464.515625 C91.84582031 464.01546875 92.41429687 463.5153125 93 463 C93 462.34 93 461.68 93 461 C93.68578125 460.75507813 94.3715625 460.51015625 95.078125 460.2578125 C97.85775498 459.06123382 100.34383255 457.63620143 102.90478516 456.03100586 C125.03050494 442.16949711 150.98509217 433.06547792 177.1875 431.375 C178.29480469 431.30023438 179.40210938 431.22546875 180.54296875 431.1484375 C181.35378906 431.09945312 182.16460938 431.05046875 183 431 C183 430.67 183 430.34 183 430 C182.35901367 429.95512451 181.71802734 429.91024902 181.05761719 429.86401367 C120.32514894 425.55129949 60.6923267 415.04274384 5.0390625 389.27734375 C-0.65885353 386.8824613 -2.88226744 386.31421755 -7.9375 390.1875 Z " fill="#813DEB" transform="translate(483,37)"/>
<path d="M0 0 C4.1965987 1.67607703 8.17225185 3.74530636 12.1875 5.8125 C14.62090663 7.02814047 17.06268087 8.22610753 19.5078125 9.41796875 C20.13130081 9.72190552 20.75478912 10.02584229 21.39717102 10.33898926 C70.24806404 33.93673878 126.44172555 47.34042784 180.1796875 52.71777344 C181.96221965 52.8961501 183.74371971 53.08548172 185.5234375 53.29003906 C194.61907439 54.26457159 203.73749381 54.23872849 212.875 54.25 C214.17059845 54.25350464 214.17059845 54.25350464 215.49237061 54.25708008 C227.26756276 54.26910311 238.67978351 53.81076023 250.2890625 51.65625 C253.34026708 51.11666856 255.93060758 50.94449323 259 51 C259.02920143 55.18748519 259.04686646 59.37494391 259.0625 63.5625 C259.07087891 64.74392578 259.07925781 65.92535156 259.08789062 67.14257812 C259.13112713 82.5780116 259.13112713 82.5780116 255.8125 86.75 C250.87493932 90.70004854 245.66816196 92.60159464 239.5625 94 C238.47690796 94.25100464 238.47690796 94.25100464 237.36938477 94.50708008 C158.75219618 111.79544874 67.19895186 93.68469994 -4.9609375 60.27734375 C-8.86402423 58.61824728 -8.86402423 58.61824728 -13 58 C-15.59007027 59.28713599 -15.59007027 59.28713599 -18 61.25 C-21.24891431 63.70699145 -24.47164682 65.95859566 -28 68 C-23.04909584 69.14171794 -18.1032506 70.18340908 -13.1015625 71.078125 C32.63399109 79.29194326 32.63399109 79.29194326 47 94 C47 94.66 47 95.32 47 96 C47.99 96.33 48.98 96.66 50 97 C52.96799059 102.27642772 53.82450573 106.98533643 53 113 C52.19795378 115.51215626 51.20566611 117.63890387 50 120 C49.34 120 48.68 120 48 120 C47.34 121.65 46.68 123.3 46 125 C45.34 125 44.68 125 44 125 C44 125.66 44 126.32 44 127 C42.68 127.33 41.36 127.66 40 128 C40 128.66 40 129.32 40 130 C35.16230728 133.6043679 30.13722814 136.67698799 24 137 C24 137.66 24 138.32 24 139 C-45.84986366 169.55931535 -137.56692217 176.12851813 -213 175 C-213 176.32 -213 177.64 -213 179 C-212.37966385 178.9529039 -211.7593277 178.9058078 -211.12019348 178.85728455 C-208.02414281 178.62225938 -204.92808697 178.38730233 -201.83203125 178.15234375 C-200.619245 178.06027649 -199.40645874 177.96820923 -198.15692139 177.87335205 C-191.1391565 177.34082773 -184.12129242 176.80965684 -177.10327148 176.28051758 C-174.0011314 176.04649162 -170.89900057 175.8123433 -167.796875 175.578125 C-166.99482195 175.51758123 -166.1927689 175.45703747 -165.36641121 175.39465904 C-154.23181382 174.55360188 -143.09821819 173.70025695 -131.96534443 172.83668423 C-123.60794234 172.18849456 -115.25017225 171.54519187 -106.892169 170.90480137 C-101.73522944 170.50937609 -96.57852467 170.11128827 -91.42227173 169.70700073 C-86.50140771 169.32121784 -81.58004891 168.94245127 -76.65827179 168.56850433 C-74.84606707 168.42960066 -73.03404747 168.28825379 -71.22225189 168.14411163 C-62.07650598 167.41787363 -52.93200993 166.84247304 -43.75756836 166.6652832 C-42.99488679 166.63686183 -42.23220522 166.60844046 -41.44641209 166.57915783 C-35.66387317 166.53349 -32.00913459 168.12873491 -27 171 C-27 171.66 -27 172.32 -27 173 C-26.01 173.33 -25.02 173.66 -24 174 C-15.77642542 181.85331885 -11.84294088 192.87501966 -11.3125 204.0625 C-11.98640853 224.31939743 -17.21894257 246.31322087 -27.8125 263.6875 C-28.46206665 264.76946655 -28.46206665 264.76946655 -29.12475586 265.87329102 C-34.5251155 274.70979201 -41.11490574 282.27105623 -48.1171875 289.87109375 C-51.06769659 292.993181 -51.06769659 292.993181 -52 297 C-51.42507813 297.24363281 -50.85015625 297.48726562 -50.2578125 297.73828125 C-29.48809468 309.34488827 -14.7658433 347.99285708 -7 369 C-7 369.66 -7 370.32 -7 371 C-6.16597656 371.06058594 -5.33195313 371.12117188 -4.47265625 371.18359375 C-2.78462891 371.30927734 -2.78462891 371.30927734 -1.0625 371.4375 C0.03964844 371.51871094 1.14179688 371.59992188 2.27734375 371.68359375 C4.98477155 371.91371091 7.65999501 372.19393121 10.35546875 372.51953125 C51.82961008 377.1842224 100.94676677 365.60148811 138.375 347.6875 C139.27955933 347.2558252 139.27955933 347.2558252 140.20239258 346.81542969 C142.13947267 345.88602885 144.07014214 344.94429762 146 344 C146.7110791 343.65469238 147.4221582 343.30938477 148.15478516 342.95361328 C150.33566922 341.89234292 152.51242467 340.82312002 154.6875 339.75 C155.35894043 339.42088623 156.03038086 339.09177246 156.72216797 338.75268555 C160.07489734 337.07888607 163.03456799 335.27623779 166 333 C167.5258552 332.21833383 169.06897014 331.46972717 170.625 330.75 C175.45146286 328.40837781 179.66708939 325.54768208 183.96875 322.35546875 C186 321 186 321 188 321 C188.33 320.01 188.66 319.02 189 318 C190.41796875 316.640625 190.41796875 316.640625 192.1875 315.25 C195.92780469 312.1508904 198.97228681 308.78665997 202 305 C202.49371094 304.40574219 202.98742187 303.81148437 203.49609375 303.19921875 C207.95974731 297.59936247 211.00968899 291.48305909 214 285 C214.44472656 284.05125 214.88945313 283.1025 215.34765625 282.125 C225.4818029 259.31542222 227.63058816 232.77034807 218.99780273 209.18017578 C215.85183156 201.06001643 211.6728321 193.68139011 206.29296875 186.82421875 C205 185 205 185 205 183 C204.41347656 182.72800781 203.82695313 182.45601562 203.22265625 182.17578125 C201.04311667 181.02280864 199.34090291 179.74557711 197.4375 178.1875 C187.76413335 170.81988927 176.77468417 167.60312054 164.75 167.6875 C163.915896 167.69241455 163.08179199 167.6973291 162.22241211 167.70239258 C147.11404131 167.98745618 134.11695427 173.81646778 121.3984375 181.64453125 C119 183 119 183 117 183 C116.67 183.99 116.34 184.98 116 186 C115.34 186 114.68 186 114 186 C113.34 187.65 112.68 189.3 112 191 C111.34 191 110.68 191 110 191 C109.6596875 192.1446875 109.6596875 192.1446875 109.3125 193.3125 C108.19222209 196.45994747 106.92200387 199.35900949 105.5 202.375 C100.72878791 212.86040711 98.77743158 224.59183615 102.1640625 235.9296875 C104.12001059 240.773858 106.57142165 245.38042162 109 250 C109.33 250.75796875 109.66 251.5159375 110 252.296875 C110.95458323 254.35040168 110.95458323 254.35040168 114 255 C114 255.66 114 256.32 114 257 C114.804375 257.268125 115.60875 257.53625 116.4375 257.8125 C118.32064069 258.44021356 120.20174091 259.07877502 122.05078125 259.80078125 C130.5153225 262.97310488 139.43860967 263.10576348 148 260 C154.02699066 256.36106224 156.11776358 251.68144657 158 245 C158.53149995 241.97179021 158.80155824 239.07584724 159 236 C156.50447516 236.78130071 156.50447516 236.78130071 154 238 C153.67 238.99 153.34 239.98 153 241 C146.10278197 246.02922148 138.20674017 246.07177361 129.94824219 245.32666016 C125.38507731 244.56155807 122.22435731 242.17125025 119 239 C117.824375 237.8553125 117.824375 237.8553125 116.625 236.6875 C112.1820053 229.3394703 111.57271874 222.46649906 112 214 C112.33 214 112.66 214 113 214 C113.66 217.63 114.32 221.26 115 225 C115.825 224.46890625 116.65 223.9378125 117.5 223.390625 C129.69422266 215.82044012 143.40120319 210.90658763 158 213 C164.39332379 214.73040859 170.83362938 217.18820725 174.88671875 222.6640625 C180.48644753 234.41366886 180.49003505 248.67677378 176.38671875 260.78515625 C171.9939231 270.96901772 165.31602956 277.84126857 155.1953125 282.2109375 C141.51033733 287.44015565 128.59163881 287.24754667 114.9609375 281.78125 C100.43079087 275.02304226 88.53934539 263.85272874 82.0703125 249.09375 C78.72633344 239.4279419 77.5035006 230.88016927 77.5625 220.625 C77.54251953 219.40039062 77.52253906 218.17578125 77.50195312 216.9140625 C77.51177154 198.3769028 85.07744337 183.94449646 98 171 C98.68707031 170.30132813 99.37414062 169.60265625 100.08203125 168.8828125 C117.64390038 152.13550131 141.87403828 146.43201443 165.50073242 146.65307617 C190.3322068 147.27114231 213.0276862 156.80450306 230.59521484 174.51318359 C247.12305216 192.00615009 253.43376122 216.23685856 253.3125 239.8125 C253.30758545 240.95323975 253.3026709 242.09397949 253.29760742 243.26928711 C253.17807079 251.89124986 252.32504138 259.66705169 250 268 C249.82307617 268.67289063 249.64615234 269.34578125 249.46386719 270.0390625 C240.25263723 305.03855457 220.13345849 333.58245926 190.06396484 353.61523438 C188.16466845 354.88951982 186.29236892 356.1940914 184.42578125 357.515625 C163.69083612 372.03562523 140.66523665 382.28318086 117 391 C115.15148437 391.69029297 115.15148437 391.69029297 113.265625 392.39453125 C75.0877936 406.11071505 33.28526054 409.90719233 -6.84814453 405.23046875 C-10.72959306 404.81475654 -14.62878774 404.62369167 -18.52734375 404.44140625 C-21.88683364 403.84168689 -24.15247645 402.90097832 -27 401 C-28.29296875 398.05078125 -28.29296875 398.05078125 -29.1875 394.3125 C-37.70578836 362.94258069 -56.42643531 331.96603691 -77 307 C-77.62519531 306.22011719 -78.25039063 305.44023438 -78.89453125 304.63671875 C-82.69872929 300.04851737 -86.98581319 296.46979998 -91.69140625 292.82421875 C-94.91253734 290.27892565 -98.13883879 287.72232243 -100 284 C-99.46632813 283.59910156 -98.93265625 283.19820312 -98.3828125 282.78515625 C-76.46470057 266.06216773 -54.95268785 241.40767504 -51 213 C-50.93329285 210.3667354 -50.90441075 207.76372587 -50.9375 205.1328125 C-50.94426758 204.09942749 -50.94426758 204.09942749 -50.95117188 203.04516602 C-50.96284064 201.36340573 -50.98077152 199.68169084 -51 198 C-52.19109375 198.07516846 -53.3821875 198.15033691 -54.609375 198.2277832 C-80.2213086 199.83944663 -105.83631041 201.34263833 -131.46383667 202.68466187 C-147.44101737 203.52200791 -163.41110074 204.43690701 -179.37948608 205.42758179 C-198.59035087 206.61908603 -217.75669707 207.51405801 -237 208 C-237 190.18 -237 172.36 -237 154 C-233.535 153.63390625 -230.07 153.2678125 -226.5 152.890625 C-206.05832241 150.6554657 -185.68168891 147.87993801 -165.29669571 145.1854248 C-161.96796444 144.74576877 -158.6390838 144.30726151 -155.31015015 143.86914062 C-128.85983729 140.38793338 -102.41587813 136.86967852 -75.99243164 133.18945312 C-61.74463249 131.20959005 -47.48006472 129.3870498 -33.1965332 127.68359375 C-25.50813671 126.75909018 -17.83846308 125.73680143 -10.1875 124.5390625 C-9.4393956 124.42878723 -8.6912912 124.31851196 -7.92051697 124.20489502 C-0.54932937 123.00492075 3.26992681 120.15664713 8 114.6875 C9.41986765 110.87160569 10.08145852 106.97720599 9 103 C4.64185333 97.6465338 -1.90745105 97.87088565 -8.3125 97.1875 C-9.63904725 97.03306552 -10.96537508 96.87673719 -12.29150391 96.71875 C-15.37052596 96.35325268 -18.45039309 95.99604806 -21.53076172 95.64208984 C-27.80821779 94.91311276 -34.07777119 94.12311821 -40.34765625 93.33203125 C-41.52528534 93.18357758 -42.70291443 93.0351239 -43.91622925 92.88217163 C-46.34260375 92.57617652 -48.76896469 92.27007384 -51.1953125 91.96386719 C-72.50876612 89.27474447 -72.50876612 89.27474447 -93.83984375 86.73046875 C-95.0258316 86.59205063 -95.0258316 86.59205063 -96.23577881 86.45083618 C-99.772562 86.0381125 -103.30976924 85.63227824 -106.84912109 85.2421875 C-108.03973145 85.10425781 -109.2303418 84.96632813 -110.45703125 84.82421875 C-111.46741455 84.71166748 -112.47779785 84.59911621 -113.51879883 84.4831543 C-116 84 -116 84 -119 82 C-110.76093062 75.14790964 -102.08677726 68.94089762 -93.37890625 62.70556641 C-89.57841403 59.98078822 -85.78957464 57.23993084 -82 54.5 C-77.51401255 51.25852485 -73.02695137 48.01858022 -68.53515625 44.78515625 C-60.02591029 38.65611895 -51.55751387 32.47577784 -43.12329102 26.24389648 C-36.85747705 21.61914438 -30.5641433 17.03370732 -24.23120117 12.5012207 C-21.00279098 10.18842121 -17.79648251 7.86700099 -14.67578125 5.41015625 C-13.73089844 4.67667969 -12.78601563 3.94320313 -11.8125 3.1875 C-11.03519531 2.56230469 -10.25789062 1.93710937 -9.45703125 1.29296875 C-6.10812053 -0.46933562 -3.63604445 -0.79819655 0 0 Z " fill="#3FBE98" transform="translate(493,367)"/>
<path d="M0 0 C6.91816375 0.98310748 11.60921091 5.16783446 16.03125 10.40625 C17.82923238 12.87466648 19.45145929 15.36873977 21 18 C21.54333984 18.91845703 21.54333984 18.91845703 22.09765625 19.85546875 C26.03519429 28.15176983 25.00737108 39.80137838 22.4375 48.375 C17.00689124 62.43741846 6.38367201 72.52138426 -7 79 C-16.40835478 83.06815341 -26.86507286 85.07305328 -37 83 C-40.60052288 80.21070604 -42.23067103 77.14238168 -44 73 C-44.3403125 72.34386719 -44.680625 71.68773437 -45.03125 71.01171875 C-49.04579673 62.33212003 -49.11552519 50.93367464 -46 42 C-38.95008723 24.35855725 -27.64201569 12.29062147 -10.40625 4 C-6.98357733 2.57759058 -3.62877682 1.73919528 0 1 C0 0.67 0 0.34 0 0 Z " fill="#3FBE98" transform="translate(647,301)"/>
<path d="M0 0 C0 0.99 0 1.98 0 3 C-1.44713413 4.28268707 -2.90421404 5.55764349 -4.4296875 6.74609375 C-6.12798177 8.04076843 -6.12798177 8.04076843 -7.875 10 C-10.87999661 12.82823211 -14.26196469 15.22807417 -18 17 C-18.66 16.67 -19.32 16.34 -20 16 C-19.31035156 15.5153125 -18.62070312 15.030625 -17.91015625 14.53125 C-11.59099824 10.02375731 -5.68811258 5.28081563 0 0 Z " fill="#3CB3A5" transform="translate(688,668)"/>
<path d="M0 0 C2.78936865 2.78936865 2.69696103 5.74588773 3.125 9.5 C3.21136719 10.18964844 3.29773438 10.87929688 3.38671875 11.58984375 C4 16.58370536 4 16.58370536 4 19 C3.34 19 2.68 19 2 19 C0.82706111 12.6221448 -0.29530838 6.49678438 0 0 Z " fill="#1FBEAF" transform="translate(711,591)"/>
<path d="M0 0 C2.89932357 2.39509338 3.50168276 4.31245243 4 8 C3.34 7.67 2.68 7.34 2 7 C1.26924352 4.6859378 0.59861742 2.35171131 0 0 Z " fill="#BF1AFF" transform="translate(713,221)"/>
<path d="M0 0 C2.15377564 2.62198774 3.40072174 4.64404172 4 8 C1.10067643 5.60490662 0.49831724 3.68754757 0 0 Z " fill="#A21CFF" transform="translate(717,229)"/>
<path d="M0 0 C0.93065133 2.60582371 1.14917407 3.64198224 0.0625 6.25 C-0.4634375 7.11625 -0.4634375 7.11625 -1 8 C-0.67 5.36 -0.34 2.72 0 0 Z " fill="#27C9BD" transform="translate(712,625)"/>
<path d="M0 0 C1.485 0.99 1.485 0.99 3 2 C3 2.66 3 3.32 3 4 C2.34 4 1.68 4 1 4 C0.67 2.68 0.34 1.36 0 0 Z " fill="#FF00FF" transform="translate(778,317)"/>
<path d="M0 0 C1 4 1 4 1 4 Z " fill="#0FCFC7" transform="translate(470,628)"/>
<path d="M0 0 C1 4 1 4 1 4 Z " fill="#DF00FF" transform="translate(798,327)"/>
<path d="" fill="#00D4D4" transform="translate(0,0)"/>
<path d="" fill="#D400FF" transform="translate(0,0)"/>
<path d="" fill="#C02DFF" transform="translate(0,0)"/>
<path d="" fill="#00BFBF" transform="translate(0,0)"/>
<path d="" fill="#00FFFF" transform="translate(0,0)"/>
<path d="" fill="#FF00FF" transform="translate(0,0)"/>
<path d="" fill="#BF00FF" transform="translate(0,0)"/>
<path d="" fill="#A144FF" transform="translate(0,0)"/>
<path d="" fill="#943FFF" transform="translate(0,0)"/>
<path d="" fill="#FF00FF" transform="translate(0,0)"/>
<path d="" fill="#A144FF" transform="translate(0,0)"/>
<path d="" fill="#00FFFF" transform="translate(0,0)"/>
<path d="" fill="#FF00FF" transform="translate(0,0)"/>
<path d="" fill="#00FFFF" transform="translate(0,0)"/>
<path d="" fill="#FF00FF" transform="translate(0,0)"/>
<path d="" fill="#FF00FF" transform="translate(0,0)"/>
<path d="" fill="#FF00FF" transform="translate(0,0)"/>
<path d="" fill="#7F00FF" transform="translate(0,0)"/>
<path d="" fill="#FF00FF" transform="translate(0,0)"/>
<path d="" fill="#7F00FF" transform="translate(0,0)"/>
<path d="" fill="#FF00FF" transform="translate(0,0)"/>
<path d="" fill="#FF00FF" transform="translate(0,0)"/>
<path d="" fill="#FF00FF" transform="translate(0,0)"/>
<path d="" fill="#FF00FF" transform="translate(0,0)"/>
<path d="" fill="#7F2AFF" transform="translate(0,0)"/>
<path d="" fill="#AA55FF" transform="translate(0,0)"/>
<path d="" fill="#7F3FFF" transform="translate(0,0)"/>
<path d="" fill="#7F2AFF" transform="translate(0,0)"/>
<path d="" fill="#FF00FF" transform="translate(0,0)"/>
<path d="" fill="#FF00FF" transform="translate(0,0)"/>
</svg>
